HIERARCHY
ROOT Bip001_Pelvis
{
  OFFSET 33.2923 95.8902 -28.781
  CHANNELS 6 Xposition Yposition Zposition Zrotation Xrotation Yrotation
  JOINT Bip001_Spine
  {
    OFFSET 1.4188e-005 10.2191 -0.0116013
    CHANNELS 3 Zrotation Xrotation Yrotation
    JOINT Bip001_L_Thigh
    {
      OFFSET 11.0458 -10.2192 0.0116197
      CHANNELS 3 Zrotation Xrotation Yrotation
      JOINT Bip001_L_Calf
      {
        OFFSET -0.707118 -44.0221 0.360014
        CHANNELS 3 Zrotation Xrotation Yrotation
        JOINT Bip001_L_Foot
        {
          OFFSET -0.651902 -40.5938 -3.56146
          CHANNELS 3 Zrotation Xrotation Yrotation
          JOINT Bip001_L_Toe0
          {
            OFFSET 0.0530839 -10.2181 13.1504
            CHANNELS 3 Zrotation Xrotation Yrotation
            End Site
            {
              OFFSET -1.02532e-005 0 7.55606
            }
          }
        }
      }
    }
    JOINT Bip001_R_Thigh
    {
      OFFSET -11.0458 -10.2191 0.0115893
      CHANNELS 3 Zrotation Xrotation Yrotation
      JOINT Bip001_R_Calf
      {
        OFFSET 0.706994 -44.0221 0.35984
        CHANNELS 3 Zrotation Xrotation Yrotation
        JOINT Bip001_R_Foot
        {
          OFFSET 0.651786 -40.5938 -3.5613
          CHANNELS 3 Zrotation Xrotation Yrotation
          JOINT Bip001_R_Toe0
          {
            OFFSET -0.0531479 -10.2181 13.1504
            CHANNELS 3 Zrotation Xrotation Yrotation
            End Site
            {
              OFFSET -1.02894e-005 0 7.55606
            }
          }
        }
      }
    }
    JOINT Bip001_Spine1
    {
      OFFSET 1.87041e-005 14.5736 1.08638
      CHANNELS 3 Zrotation Xrotation Yrotation
      JOINT Bip001_Spine2
      {
        OFFSET 2.24614e-005 14.5058 -1.69078
        CHANNELS 3 Zrotation Xrotation Yrotation
        JOINT Bip001_Neck
        {
          OFFSET 2.20278e-005 15.3945 -0.489414
          CHANNELS 3 Zrotation Xrotation Yrotation
          JOINT Bip001_L_Clavicle
          {
            OFFSET 6.06036 -0.000579998 0.00836775
            CHANNELS 3 Zrotation Xrotation Yrotation
            JOINT Bip001_L_UpperArm
            {
              OFFSET 11.5509 -0.0600302 0.00193952
              CHANNELS 3 Zrotation Xrotation Yrotation
              JOINT Bip001_L_Forearm
              {
                OFFSET 25.9523 0.0806089 -2.15551
                CHANNELS 3 Zrotation Xrotation Yrotation
                JOINT Bip001_L_Hand
                {
                  OFFSET 32.2476 0.153767 1.63968
                  CHANNELS 3 Zrotation Xrotation Yrotation
                  JOINT Bip001_L_Finger0
                  {
                    OFFSET 6.04639 -2.20976 5.90322
                    CHANNELS 3 Zrotation Xrotation Yrotation
                    End Site
                    {
                      OFFSET 4.22376 -1.43895 0.606486
                    }
                  }
                  JOINT Bip001_L_Finger1
                  {
                    OFFSET 11.0826 -0.704819 -0.198153
                    CHANNELS 3 Zrotation Xrotation Yrotation
                    End Site
                    {
                      OFFSET 6.20028 -0.397518 -0.0787166
                    }
                  }
                }
              }
            }
          }
          JOINT Bip001_R_Clavicle
          {
            OFFSET -6.06036 -0.000563197 0.00835105
            CHANNELS 3 Zrotation Xrotation Yrotation
            JOINT Bip001_R_UpperArm
            {
              OFFSET -11.5509 -0.0599978 0.00190698
              CHANNELS 3 Zrotation Xrotation Yrotation
              JOINT Bip001_R_Forearm
              {
                OFFSET -25.9523 0.080682 -2.1559
                CHANNELS 3 Zrotation Xrotation Yrotation
                JOINT Bip001_R_Hand
                {
                  OFFSET -32.2476 0.153858 1.63991
                  CHANNELS 3 Zrotation Xrotation Yrotation
                  JOINT Bip001_R_Finger0
                  {
                    OFFSET -6.04641 -2.20974 5.90321
                    CHANNELS 3 Zrotation Xrotation Yrotation
                    End Site
                    {
                      OFFSET -4.22376 -1.43894 0.606474
                    }
                  }
                  JOINT Bip001_R_Finger1
                  {
                    OFFSET -11.0826 -0.704789 -0.198184
                    CHANNELS 3 Zrotation Xrotation Yrotation
                    End Site
                    {
                      OFFSET -6.20028 -0.397501 -0.0787338
                    }
                  }
                }
              }
            }
          }
          JOINT Bip001_Head
          {
            OFFSET 1.09673e-005 11.2744 2.05948
            CHANNELS 3 Zrotation Xrotation Yrotation
            End Site
            {
              OFFSET 2.89576e-005 20.8808 -2.77728e-005
            }
          }
        }
      }
    }
  }
}
MOTION
Frames:	12
Frame Time:	0.04
32.2217 95.8374 -28.2146 -0.609419 -1.67372 3.17367 -0.000674739 2.53342 -0.537869 6.74872 -2.99037 7.52012 -1.22425 8.88587 -14.1367 5.60601 -2.36041 -0.157616 -3.03152 -5.09575 4.95975 -1.41073 -1.09262 -4.57831 -1.1639 8.98495 0.417121 -5.15281 -9.45399 3.77084 2.17208 -7.36254 2.24372 0.0231831 5.06667 -1.09069 0.0214253 5.0667 -1.08393 -5.27785 -2.17347 0.561975 -19.4943 3.98284 -1.93884 -49.1515 38.6589 -2.74417 12.7128 2.11261 -24.2278 8.4667 1.21858 -2.10276 -6.36111e-015 9.54166e-015 -0 -3.18055e-015 3.18056e-015 -1.59028e-015 19.59 9.75033 31.5128 64.2402 -19.9091 55.3239 -37.007 -3.80839 90.3859 -48.337 15.5467 11.0823 -2.78298e-015 -3.18055e-015 7.95139e-016 -2.38542e-015 -6.36111e-015 -3.97569e-016 5.35892 12.1275 -2.62639 
32.1746 95.8272 -28.0035 -0.313375 -1.92502 3.05825 -0.061772 2.56459 -0.390667 6.52427 -2.38602 8.49245 -1.05656 8.46651 -15.1424 5.32865 -2.42948 -0.147642 -3.07032 -4.98855 4.98602 -1.59689 -0.929567 -4.69852 -1.22765 9.3964 0.426073 -5.16566 -9.7744 3.84095 2.17432 -7.37172 2.24357 -0.108527 5.12958 -0.778395 -0.105986 5.12956 -0.779068 -5.23388 -1.98034 0.511573 -19.6173 3.76707 -1.87918 -49.0004 38.4731 -2.90149 12.4849 1.41562 -24.3565 7.83548 1.29936 -2.02418 -6.36111e-015 3.18055e-015 3.18055e-015 -6.36111e-015 3.18056e-015 -0 18.1021 9.39273 32.8596 58.2985 -15.7188 54.2756 -38.9286 -6.86642 83.0604 -48.5826 15.18 11.7857 1.59028e-015 6.36111e-015 -1.19271e-015 -4.41391e-032 6.36111e-015 3.97569e-016 5.34985 11.9221 -2.65491 
32.0302 95.8188 -27.9119 -0.403648 -1.88417 3.47279 -0.0632285 2.53582 -0.355364 6.80403 -2.51037 8.42206 -1.13023 8.64425 -15.4351 5.04213 -2.70878 -0.12613 -3.15541 -4.82948 5.06909 -1.33453 -0.767072 -5.06538 -1.31849 9.26116 0.46443 -5.2521 -9.77071 3.72013 2.17608 -7.36991 2.24396 -0.111767 5.07199 -0.708712 -0.111881 5.07199 -0.708856 -5.00711 -1.8278 0.402155 -19.7247 3.50448 -1.58319 -49.1261 38.4912 -2.86877 12.3915 0.952493 -24.7067 7.74163 1.36763 -1.95019 0 0 -3.18055e-015 -3.18055e-015 -3.18056e-015 -3.18055e-015 16.5845 9.03649 33.8756 49.6433 -10.3869 51.5604 -42.2148 -12.0584 72.979 -45.9391 16.4403 11.9902 -1.59028e-015 6.36111e-015 1.59028e-015 -1.32417e-031 3.18056e-015 2.38542e-015 5.22786 11.7966 -2.65967 
31.8496 95.8019 -27.8052 -0.610279 -1.91618 3.91836 -0.0488539 2.48809 -0.334633 7.26011 -2.65774 8.51659 -1.26437 9.04874 -15.9576 5.01512 -2.96307 -0.114939 -3.17877 -4.77486 5.08246 -0.916508 -0.454409 -5.38841 -1.42963 9.0039 0.612318 -5.40482 -9.69044 3.44731 2.17899 -7.39437 2.24671 -0.0836903 4.97643 -0.661549 -0.0836898 4.97642 -0.661549 -4.48288 -1.30465 0.210619 -20.146 2.88897 -1.40442 -49.3306 38.3959 -2.5299 12.592 1.46007 -25.0075 7.70415 1.05402 -2.20413 3.18055e-015 6.36111e-015 -0 3.18055e-015 6.36111e-015 3.18055e-015 15.1747 8.44251 34.9154 40.6819 -5.55793 49.0535 -45.8078 -14.5865 62.4734 -41.669 18.6352 8.88909 -3.97251e-031 -9.54166e-015 -2.38542e-015 -1.76556e-031 -6.36111e-015 -1.59028e-015 4.80406 11.6024 -2.57561 
31.7133 95.786 -27.7304 -0.652042 -1.85302 4.30185 -0.0658262 2.47216 -0.337071 7.48804 -2.82698 8.64664 -1.32545 9.2306 -16.4197 4.97485 -3.05936 -0.107211 -3.18434 -4.76055 5.06792 -0.687146 -0.417752 -5.62257 -1.52435 9.00814 0.643971 -5.50495 -9.72685 3.25931 2.18205 -7.42415 2.25123 -0.117676 4.94468 -0.684328 -0.11764 4.94467 -0.684405 -4.49988 -1.49277 0.197322 -20.0936 2.87499 -0.730468 -49.2521 38.5889 -2.72883 12.6729 1.52134 -25.1368 7.5612 1.15761 -2.25973 -1.76556e-031 3.18055e-015 3.18055e-015 -1.76556e-031 3.18056e-015 3.18055e-015 14.2856 8.48801 35.8362 41.4744 -4.75261 51.693 -52.6139 -9.39976 59.6417 -38.7783 23.8046 9.3009 4.41391e-032 -3.18055e-015 7.95139e-016 8.82782e-032 -3.18056e-015 1.59028e-015 4.98267 11.9703 -2.66065 
31.5467 95.779 -27.6777 -0.783913 -1.78836 4.8159 -0.0743368 2.42894 -0.336708 7.86571 -3.07571 8.28867 -1.50081 9.51029 -16.4507 4.76202 -3.29471 -0.0961313 -3.20621 -4.62675 5.0891 -0.328342 -0.269003 -5.90928 -1.63883 8.81353 0.631272 -5.60206 -9.64333 3.0441 2.18514 -7.42829 2.26727 -0.13291 4.85804 -0.680313 -0.133397 4.85811 -0.680624 -3.72469 -1.06295 -0.217935 -20.8567 2.30755 -0.43488 -49.2545 38.4471 -2.68031 12.6746 1.55088 -25.1341 7.53055 1.21967 -2.10239 3.18055e-015 0 -6.36111e-015 6.36111e-015 0 -0 14.2651 8.34522 35.725 46.1483 -6.36131 52.7496 -49.8476 -11.1185 62.0187 -41.8724 17.6875 11.6212 1.59028e-015 0 7.95139e-016 -0 0 7.95139e-016 4.45256 11.8738 -2.6736 
31.475 95.769 -27.6575 -0.70697 -1.73483 5.17673 -0.110739 2.381 -0.390051 7.88309 -3.13757 7.83503 -1.56755 9.46319 -16.3401 4.78156 -3.16157 -0.0962786 -3.19688 -4.68944 5.0715 -0.304338 -0.28649 -5.94572 -1.61454 8.97412 0.490531 -5.69249 -9.74166 2.89011 2.18503 -7.43606 2.26065 -0.207103 4.76307 -0.777379 -0.206358 4.76297 -0.776871 -3.22027 -0.368504 -0.386423 -21.327 1.62241 -0.617195 -49.5905 37.5501 -2.24066 12.6078 2.2311 -25.0132 7.90635 1.13126 -2.215 3.18055e-015 -3.18055e-015 -0 3.18055e-015 -3.18056e-015 -0 14.3271 7.76851 35.1632 49.3663 -7.60221 52.5712 -48.8067 -9.49735 68.2952 -41.5476 19.4907 10.5592 -1.59028e-015 -3.18055e-015 7.95139e-016 -0 -3.18056e-015 -0 3.74784 11.7115 -2.49516 
31.4921 95.7747 -27.6606 -0.467502 -1.73306 5.15604 -0.152917 2.39067 -0.520322 7.60703 -2.97388 7.50076 -1.5276 9.13926 -15.8902 4.61634 -3.06926 -0.0968728 -3.26768 -4.61846 5.14836 -0.599183 -0.513724 -5.74265 -1.47176 9.46213 0.553202 -5.75314 -9.9338 2.76266 2.18089 -7.39818 2.25615 -0.284446 4.7826 -1.03561 -0.284447 4.78261 -1.03561 -3.42402 -0.257022 -0.113853 -21.1469 1.53123 -0.626523 -49.868 37.2812 -2.09003 12.7305 2.82396 -24.6536 7.70729 1.06806 -2.42593 3.18055e-015 0 -0 3.18055e-015 -3.18056e-015 -0 14.7344 7.66801 34.9957 49.5468 -8.07376 52.8729 -47.5042 -9.61544 69.1968 -43.9577 19.4917 10.7397 3.18055e-015 3.18055e-015 -7.95139e-016 1.59028e-015 0 -7.95139e-016 3.73285 11.9883 -2.29231 
31.5331 95.7798 -27.6743 -0.317256 -1.78496 4.83168 -0.179013 2.42205 -0.572553 7.30244 -2.72173 7.39635 -1.37829 8.76802 -15.4896 4.99898 -2.55239 -0.132452 -3.02533 -4.95829 4.95493 -0.83235 -0.693637 -5.46778 -1.37186 9.80238 0.672286 -5.73945 -10.0406 2.75644 2.07023 -7.34332 2.55434 -0.334214 4.84576 -1.13905 -0.334214 4.84576 -1.13905 -3.65407 -0.216614 0.0768666 -20.9009 1.52233 -0.691077 -49.9686 38.15 -1.92048 12.7005 2.42971 -24.3899 7.31684 1.29903 -2.16963 -1.76556e-031 -3.18055e-015 -3.18055e-015 -3.53113e-031 -3.18056e-015 -6.36111e-015 15.5003 7.69757 34.5249 49.9976 -9.28039 52.0539 -43.8463 -10.7687 71.578 -47.0973 16.4326 11.7311 1.59028e-015 3.18055e-015 -7.95139e-016 0 0 -0 3.64975 11.989 -2.14908 
31.585 95.7857 -27.7353 -0.295287 -1.77564 4.35739 -0.180685 2.42241 -0.561996 7.1346 -2.66595 7.42186 -1.19236 8.75475 -15.0948 4.74188 -2.68885 -0.126757 -3.15878 -4.81593 5.07592 -1.0227 -0.822915 -5.16254 -1.15425 9.86245 0.761267 -5.73049 -10.0658 2.77867 2.04802 -7.27414 2.53219 -0.338228 4.84292 -1.1178 -0.338758 4.84293 -1.1178 -3.54192 0.110755 0.108534 -20.8735 1.32203 -1.1626 -50.3035 39.3292 -1.40783 12.7999 1.95106 -24.107 7.10427 1.262 -2.03902 -0 0 3.18055e-015 -6.36111e-015 0 1.59028e-015 16.4809 7.59546 33.8167 49.2422 -10.1095 51.1432 -39.8761 -11.6285 73.4132 -49.7191 12.9879 12.2222 -3.18055e-015 3.18055e-015 -0 1.76556e-031 6.36111e-015 -1.59028e-015 3.47091 11.8491 -2.03354 
31.6877 95.8 -27.7938 -0.145124 -1.79249 3.74309 -0.182552 2.44598 -0.527194 6.76778 -2.41383 7.34859 -1.02608 8.40167 -14.5042 4.68185 -2.5437 -0.119231 -3.20836 -4.76237 5.1322 -1.39485 -1.07307 -4.81827 -0.992221 10.1614 0.722883 -5.57552 -10.1828 3.11351 2.01686 -7.17158 2.49295 -0.343626 4.89356 -1.04781 -0.343917 4.89356 -1.04782 -3.54628 -0.00188202 0.0751869 -20.9691 1.51394 -1.39575 -50.4793 39.7348 -1.15865 13.1597 2.77835 -23.7641 7.63621 0.982898 -2.27244 0 0 -1.59028e-015 6.36111e-015 -3.18056e-015 -0 17.8033 7.96819 32.9418 50.0779 -11.3001 50.717 -39.1527 -9.14968 76.6534 -50.0633 12.9389 12.3223 -7.95139e-016 -3.18055e-015 -0 -8.82782e-032 -3.18056e-015 -1.59028e-015 3.23815 12.137 -1.99557 
31.7693 95.8086 -27.8476 -0.010719 -1.8074 3.17257 -0.197764 2.47696 -0.517422 6.45202 -2.17417 7.47262 -0.875546 8.03802 -14.2203 4.78146 -2.3017 -0.136939 -3.17382 -4.93029 5.14326 -1.68242 -1.27171 -4.51661 -0.895235 10.3192 0.569911 -5.39771 -10.2876 3.50732 1.98622 -7.07958 2.47507 -0.372509 4.96502 -1.02784 -0.372509 4.96504 -1.02785 -3.42607 -0.085726 0.0716229 -21.0667 1.65465 -1.57366 -50.629 39.453 -0.964126 13.0511 2.77876 -23.7909 7.57236 1.0787 -2.23801 -3.53112e-031 -6.36111e-015 -3.18055e-015 -1.76556e-031 -3.18056e-015 -3.18055e-015 19.3406 8.33303 31.782 50.7322 -12.5912 49.5284 -39.6415 -6.33458 80.9174 -48.8006 13.0403 11.9747 0 6.36111e-015 -0 7.95139e-016 1.27222e-014 7.95139e-016 2.98533 12.1469 -1.87913 
